<?xml version="1.0" standalone="no"?>
<!DOCTYPE svg PUBLIC "-//W3C//DTD SVG 20010904//EN"
 "http://www.w3.org/TR/2001/REC-SVG-20010904/DTD/svg10.dtd">
<svg version="1.0" xmlns="http://www.w3.org/2000/svg"
 width="219.000000pt" height="219.000000pt" viewBox="0 0 219.000000 219.000000"
 preserveAspectRatio="xMidYMid meet">
<metadata>
Created by potrace 1.14, written by Peter Selinger 2001-2017
</metadata>
<g transform="translate(0.000000,219.000000) scale(0.100000,-0.100000)"
fill="#000000" stroke="none">
<path d="M512 1750 c-114 -30 -224 -93 -309 -176 -40 -40 -73 -78 -73 -83 0
-7 39 -11 110 -11 l110 0 0 -67 0 -67 63 61 c34 33 73 66 86 73 36 19 168 16
215 -3 21 -10 41 -17 43 -17 11 0 -5 227 -18 265 l-14 40 -70 2 c-44 1 -97 -5
-143 -17z"/>
<path d="M956 1743 c-10 -48 -20 -393 -10 -393 5 0 38 29 75 66 62 62 69 65
130 74 86 13 177 -3 227 -40 75 -54 92 -127 92 -384 l0 -182 28 -27 c31 -30
100 -62 154 -72 76 -14 152 36 152 100 0 42 -23 69 -117 132 -182 123 -236
214 -191 321 54 129 247 192 437 141 l37 -10 0 -69 c0 -39 -3 -70 -7 -70 -3 0
-14 7 -24 16 -25 22 -87 43 -131 44 -47 0 -116 -27 -128 -51 -29 -52 1 -104
100 -171 180 -123 217 -174 208 -283 -6 -76 -45 -130 -123 -170 -65 -33 -23
-31 -463 -27 l-154 1 8 23 c20 63 24 111 24 321 0 256 -5 277 -65 303 -50 20
-130 17 -205 -9 l-65 -23 0 -264 c1 -228 3 -270 18 -304 10 -22 16 -40 15 -42
-2 -1 -113 -4 -248 -6 l-245 -3 -67 32 -68 32 0 -95 c0 -52 5 -115 11 -140 11
-44 12 -44 83 -67 70 -22 79 -22 621 -22 504 0 555 2 615 18 307 87 492 305
507 597 5 87 2 120 -15 188 -66 259 -260 459 -508 522 -69 18 -111 20 -389 20
l-313 0 -6 -27z"/>
<path d="M70 1388 c-68 -142 -89 -315 -54 -457 18 -76 81 -212 118 -256 l25
-30 1 343 c0 278 -3 356 -16 413 -8 38 -20 69 -25 69 -6 0 -28 -37 -49 -82z"/>
<path d="M440 1344 c-8 -3 -32 -12 -52 -21 l-38 -16 0 -223 0 -223 26 -20 c40
-32 91 -44 160 -38 75 6 117 28 161 85 76 100 66 307 -20 401 -36 38 -95 61
-162 60 -33 0 -67 -3 -75 -5z"/>
</g>
</svg>
