<svg width="223" height="52" viewBox="0 0 223 52" fill="#ffffff" xmlns="http://www.w3.org/2000/svg">
<path d="M197.026 0.260159H37.5307C37.3207 1.04141 37.1345 1.87891 36.9832 2.75516C36.8357 4.32891 36.6895 6.61891 36.6895 9.48266V16.2127L42.1319 11.0564C43.8969 10.6277 45.3695 10.4839 46.692 10.4839C49.9295 10.4839 52.2844 11.2014 54.0482 12.9202C55.6682 14.6377 56.5507 17.0727 56.5507 20.3627V32.1002C56.5507 32.5952 56.557 33.0627 56.5682 33.5127C57.7632 34.7277 58.9682 35.6077 60.2932 36.2527C61.6182 36.8227 63.0882 37.2527 64.4132 37.2527C65.8857 37.2527 67.062 36.8227 67.9445 36.1077C68.827 35.5364 69.2694 34.6764 69.2694 33.5339C69.2694 32.8164 68.9745 31.9577 68.2395 31.1014C67.502 30.3852 66.0332 29.3839 63.9707 28.0914C61.4719 26.3752 59.5582 24.8002 58.5282 23.3689C57.4982 22.0789 56.9107 20.6489 56.9107 18.9302C56.9107 16.4964 58.0857 14.4939 60.4407 12.7752C62.7945 11.2014 65.5882 10.4839 69.1207 10.4839C70.4445 10.4839 71.6207 10.4839 72.5057 10.6277C73.3882 10.9139 74.5657 11.2014 75.7407 11.6314V17.3577C74.7094 16.4964 73.6819 15.7802 72.6507 15.2077C71.6207 14.7814 70.4445 14.6377 69.1207 14.6377C67.7982 14.6377 66.6194 14.9227 65.5882 15.4952C64.7069 16.0689 64.2657 16.9277 64.2657 17.7839C64.2657 18.7902 64.5607 19.5052 65.1482 20.2202C65.7382 21.0777 66.9057 21.9489 68.6782 23.0852C71.6119 24.9614 73.6819 26.5189 74.8569 27.9489C75.8894 29.3839 76.4769 30.9539 76.4769 32.5302C76.4769 35.1077 75.4469 37.2527 73.3882 38.9714C71.1819 40.5477 68.5332 41.4039 65.2969 41.4039C63.5307 41.4039 62.0595 41.4039 60.7357 41.1189C59.9132 41.0202 58.8707 40.8464 57.717 40.5564C57.7707 40.6477 57.8145 40.7452 57.8745 40.8327H47.872C48.4582 39.8314 48.8994 38.8302 49.0482 37.5402C49.3419 36.2527 49.487 34.3914 49.487 32.1002V21.0777C49.487 19.3602 48.8994 18.0714 48.0169 17.2139C46.9894 16.3539 45.517 16.0689 43.6045 16.0689C42.2795 16.0689 40.5145 16.3539 38.307 17.2139L36.6895 17.9302V32.1002C36.6895 34.3914 36.8357 36.2527 36.9832 37.3989C37.2782 38.6852 37.7194 39.8314 38.1594 40.8327H28.0107C28.0132 40.8264 28.0169 40.8214 28.0194 40.8139C26.6919 41.2039 25.227 41.4039 23.6245 41.4039C19.9445 41.4039 16.7107 40.4039 14.0607 38.3989V41.5502C14.0607 43.1239 14.0607 44.5564 14.3545 45.8427C14.4607 46.7677 14.722 47.7677 15.0732 48.8889C18.5295 50.6227 22.4257 51.6027 26.547 51.6027H197.026C211.179 51.6027 222.696 40.0889 222.696 25.9327C222.696 11.7764 211.179 0.260159 197.026 0.260159ZM14.0607 16.2127L18.9157 11.4877L19.7969 11.0564C20.8269 10.6277 22.152 10.4839 23.7695 10.4839C25.9807 10.4839 27.9382 10.9764 29.6269 11.9327V8.62266C29.6269 6.61891 29.4807 5.04641 29.1845 3.75766C29.0507 2.59141 28.6719 1.42516 28.1644 0.260159H26.547C17.9332 0.260159 10.3032 4.52766 5.6432 11.0564H14.0607V16.2127V16.2127ZM197.026 49.0839H97.0532V49.0527C85.5745 47.5977 76.6969 37.8064 76.6969 25.9327C76.6969 14.0577 85.5745 4.26516 97.0532 2.80891V2.78266H197.026C209.791 2.78266 220.173 13.1677 220.173 25.9327C220.173 38.6977 209.791 49.0839 197.026 49.0839ZM20.6807 16.0689C19.3582 16.0689 17.8857 16.2127 16.1207 16.7839C15.5332 17.0727 14.797 17.3577 14.0607 17.7839V34.1039C15.6795 35.8214 17.5932 36.6802 19.9445 36.6802C22.887 36.6802 25.2344 35.8177 26.7132 34.1039C28.3257 32.2377 29.2132 29.8102 29.2132 26.5189C29.2132 23.2252 28.3307 20.6489 26.8595 18.7902C25.3895 16.9277 23.1819 16.0689 20.6807 16.0689M5.46446 11.3102C2.57571 15.4627 0.875702 20.5014 0.875702 25.9327C0.875702 32.1827 3.12319 37.9189 6.84944 42.3714C6.84944 42.1014 6.85194 41.8277 6.85194 41.5502V19.7902C6.85194 18.2152 6.85195 16.7839 6.55695 15.4952C6.4182 14.2714 6.00821 12.9127 5.46446 11.3102" />
<path d="M82.1951 29.6847V22.3572C82.1951 21.271 82.1513 20.3535 82.0638 19.6147C81.9738 18.8722 81.8188 18.1047 81.5901 17.3135H83.5251H85.6913C87.7676 17.3135 89.3201 17.741 90.3576 18.5972C91.3888 19.4535 91.9063 20.7397 91.9063 22.4547C91.9063 24.301 91.3001 25.6535 90.0876 26.5047C88.9513 27.2985 87.1988 27.7235 84.8288 27.776V29.6935C84.8288 30.7885 84.8713 31.7072 84.9601 32.4447C85.0488 33.1872 85.2038 33.9472 85.4313 34.7322H83.5176H81.5901C81.8151 33.961 81.9713 33.2035 82.0601 32.4647C82.1513 31.7222 82.1951 30.796 82.1951 29.6847ZM84.8288 26.4447C86.2651 26.431 87.3263 26.1297 88.0076 25.551C88.6901 24.966 89.0326 24.0347 89.0326 22.7522C89.0326 21.4985 88.7176 20.561 88.0863 19.9397C87.4576 19.3147 86.5113 19.0035 85.2526 19.0035H84.8288V26.4447V26.4447Z" />
<path d="M93.1943 31.198V21.643C93.1943 20.858 93.1556 20.208 93.0818 19.688C93.0093 19.1705 92.8768 18.6417 92.6843 18.1105L94.4131 17.7655L96.1406 17.4105C95.9443 17.9592 95.8068 18.5692 95.7281 19.2417C95.6481 19.9167 95.6081 20.8367 95.6081 21.9992V24.753L97.4406 22.6417C98.0631 22.4717 98.5818 22.3867 98.9956 22.3867C100.092 22.3867 100.923 22.728 101.493 23.4142C102.063 24.1005 102.349 25.0992 102.349 26.408V31.198C102.349 32.203 102.379 32.9642 102.443 33.4805C102.507 33.9955 102.619 34.413 102.784 34.733H101.106H99.4268C99.6168 34.3617 99.7481 33.9167 99.8243 33.3992C99.8956 32.8792 99.9331 32.1455 99.9331 31.2017V26.7455C99.9331 26.043 99.7693 25.5192 99.4443 25.1742C99.1193 24.8292 98.6193 24.658 97.9481 24.658C97.4918 24.658 96.8918 24.8292 96.1506 25.1692L95.6081 25.4117V31.2017C95.6081 32.1405 95.6481 32.868 95.7281 33.3817C95.8068 33.8967 95.9443 34.3467 96.1406 34.733H94.4131H92.6843C92.8768 34.3617 93.0093 33.9167 93.0818 33.3992C93.1556 32.8792 93.1943 32.1455 93.1943 31.198Z" />
<path d="M107.339 34.9975C106.16 34.9975 105.255 34.745 104.618 34.245C103.983 33.7412 103.664 33.0225 103.664 32.0912C103.664 31.47 103.888 30.8862 104.335 30.34C104.783 29.7925 105.388 29.3587 106.15 29.0425L109.703 27.5737V26.475C109.703 25.8162 109.499 25.2925 109.093 24.9025C108.688 24.5137 108.138 24.32 107.451 24.32C107.01 24.32 106.58 24.3962 106.17 24.545C105.755 24.695 105.304 24.945 104.806 25.29L105.473 22.9675C105.946 22.7662 106.404 22.62 106.848 22.525C107.29 22.435 107.74 22.3862 108.198 22.3862C109.501 22.3862 110.48 22.7287 111.135 23.4112C111.791 24.09 112.118 25.1075 112.118 26.465V31.1987C112.118 32.2037 112.153 32.965 112.213 33.4812C112.276 33.995 112.389 34.4137 112.553 34.7325H111.128H109.703V33.5737L107.825 34.975L107.339 34.9975ZM109.703 32.9V29.5862H106.604C106.531 29.5862 106.438 29.8087 106.323 30.255C106.206 30.7037 106.154 31.08 106.154 31.38C106.154 31.9487 106.336 32.3775 106.704 32.6625C107.073 32.9475 107.629 33.0887 108.363 33.0887C108.82 33.0887 109.26 33.0262 109.678 32.9H109.703V32.9Z" />
<path d="M114.478 31.198V26.1855C114.478 25.5355 114.439 24.9492 114.368 24.4305C114.294 23.9117 114.162 23.3192 113.97 22.6517H115.428H116.893V24.7955L118.763 22.6855C119.318 22.4855 119.849 22.3867 120.357 22.3867C120.778 22.3867 121.139 22.468 121.435 22.6317L120.945 25.2355L120.835 25.1567C120.384 24.8242 119.849 24.658 119.229 24.658C118.772 24.658 118.174 24.8255 117.434 25.1655L116.893 25.408V31.198C116.893 32.1367 116.932 32.868 117.01 33.3817C117.09 33.8967 117.228 34.3467 117.425 34.733H115.698H113.97C114.162 34.3617 114.294 33.9167 114.368 33.3992C114.439 32.878 114.478 32.1455 114.478 31.198Z" />
<path d="M122.419 31.198V26.1855C122.419 25.5355 122.382 24.9492 122.309 24.4305C122.237 23.9117 122.102 23.3192 121.912 22.6517H123.367H124.835V24.9755L126.347 23.1092L126.89 22.7855C127.407 22.5192 128 22.3867 128.667 22.3867C129.62 22.3867 130.351 22.6855 130.855 23.2855C131.232 23.7317 131.464 24.3317 131.545 25.0867L133.336 23.0867L133.829 22.8092C134.347 22.5255 134.901 22.3867 135.489 22.3867C136.426 22.3867 137.139 22.6792 137.629 23.2655C138.119 23.8492 138.364 24.7067 138.364 25.8292V31.198C138.364 32.2205 138.394 32.9905 138.451 33.5092C138.511 34.0292 138.617 34.4355 138.772 34.733H137.109H135.441C135.631 34.3617 135.765 33.9167 135.839 33.3992C135.91 32.8792 135.946 32.1455 135.946 31.2017V26.5905C135.946 25.938 135.796 25.4542 135.489 25.1342C135.186 24.8167 134.722 24.658 134.097 24.658C133.515 24.658 132.879 24.853 132.179 25.2455L131.599 25.6017V31.2017C131.599 32.1405 131.639 32.868 131.719 33.3817C131.797 33.8967 131.935 34.3467 132.131 34.733H130.402H128.675C128.865 34.3617 128.999 33.9167 129.072 33.3992C129.146 32.8792 129.184 32.1455 129.184 31.2017V26.5992C129.184 25.9417 129.031 25.4542 128.73 25.1342C128.425 24.8167 127.96 24.658 127.33 24.658C126.799 24.658 126.144 24.8617 125.367 25.2692L124.835 25.5442V31.2017C124.835 32.1405 124.874 32.868 124.954 33.3817C125.034 33.8967 125.169 34.3467 125.367 34.733H123.64H121.912C122.102 34.3617 122.237 33.9167 122.309 33.3992C122.382 32.878 122.419 32.1455 122.419 31.198Z" />
<path d="M146.798 25.2368C146.456 24.8343 146.106 24.5418 145.749 24.3568C145.388 24.1718 144.991 24.0768 144.552 24.0768C144.067 24.0768 143.666 24.203 143.343 24.4555C143.024 24.7068 142.864 25.0218 142.864 25.398C142.864 25.768 142.973 26.1018 143.188 26.398C143.396 26.6943 143.796 27.0693 144.381 27.5193C145.372 28.2818 146.068 28.953 146.468 29.5305C146.861 30.1005 147.057 30.7205 147.057 31.3855C147.057 32.423 146.696 33.2855 145.972 33.968C145.249 34.653 144.337 34.998 143.239 34.998C142.639 34.998 142.123 34.9618 141.697 34.8918C141.269 34.823 140.746 34.6905 140.123 34.4893V31.6143C140.589 32.178 141.057 32.598 141.524 32.8705C141.992 33.1443 142.471 33.2818 142.961 33.2818C143.436 33.2818 143.828 33.1443 144.141 32.8643C144.452 32.5855 144.608 32.2355 144.608 31.813C144.608 31.4705 144.482 31.1405 144.231 30.8205C143.987 30.5105 143.513 30.0843 142.806 29.5418C141.914 28.853 141.289 28.2318 140.923 27.6755C140.568 27.1268 140.388 26.5155 140.388 25.8418C140.388 24.8493 140.786 24.0255 141.577 23.368C142.367 22.7143 143.361 22.3868 144.558 22.3868C144.997 22.3868 145.373 22.4243 145.693 22.4955C146.013 22.5705 146.383 22.703 146.798 22.8943V25.2368Z" />
<path d="M151.974 34.9975C151.024 34.9975 150.334 34.7175 149.899 34.1537C149.465 33.59 149.248 32.69 149.248 31.4525V24.32H147.531V24.3075L151.641 19.9937H151.663V22.6525H154.464V24.32H151.663V30.4412C151.663 31.2525 151.804 31.8625 152.081 32.2687C152.358 32.6687 152.775 32.8712 153.331 32.8712C153.673 32.8712 153.985 32.83 154.274 32.75C154.558 32.6675 154.901 32.5225 155.299 32.3162L154.343 34.6362C153.921 34.78 153.551 34.875 153.236 34.9225C152.921 34.975 152.5 34.9975 151.974 34.9975Z" />
<path d="M159.087 34.9975C157.912 34.9975 157.005 34.745 156.368 34.245C155.733 33.7412 155.414 33.0225 155.414 32.0912C155.414 31.47 155.638 30.8862 156.084 30.34C156.532 29.7925 157.138 29.3587 157.9 29.0425L161.454 27.5737V26.475C161.454 25.8162 161.252 25.2925 160.842 24.9025C160.435 24.5137 159.89 24.32 159.203 24.32C158.759 24.32 158.333 24.3962 157.92 24.545C157.507 24.695 157.052 24.945 156.558 25.29L157.225 22.9675C157.698 22.7662 158.155 22.62 158.598 22.525C159.04 22.435 159.488 22.3862 159.945 22.3862C161.252 22.3862 162.23 22.7287 162.885 23.4112C163.539 24.09 163.868 25.1075 163.868 26.465V31.1987C163.868 32.2037 163.9 32.965 163.964 33.4812C164.027 33.995 164.138 34.4137 164.304 34.7325H162.879H161.454V33.5737L159.579 34.975L159.087 34.9975ZM161.454 32.9V29.5862H158.357C158.283 29.5862 158.187 29.8087 158.072 30.255C157.958 30.7037 157.902 31.08 157.902 31.38C157.902 31.9487 158.087 32.3775 158.453 32.6625C158.823 32.9475 159.377 33.0887 160.115 33.0887C160.572 33.0887 161.008 33.0262 161.43 32.9H161.454V32.9Z" />
<path d="M166.568 31.198V26.1855C166.568 25.5267 166.529 24.938 166.456 24.418C166.38 23.9017 166.249 23.3117 166.059 22.6517H167.514H168.981V24.753L170.814 22.6417C171.436 22.4717 171.954 22.3867 172.366 22.3867C173.464 22.3867 174.298 22.728 174.868 23.4142C175.435 24.1005 175.723 25.0992 175.723 26.408V31.198C175.723 32.203 175.753 32.9642 175.816 33.4805C175.878 33.9955 175.994 34.413 176.155 34.733H174.476H172.798C172.991 34.3617 173.123 33.9167 173.198 33.3992C173.269 32.8792 173.306 32.1455 173.306 31.2017V26.7455C173.306 26.043 173.144 25.5192 172.819 25.1742C172.49 24.8292 171.994 24.658 171.32 24.658C170.863 24.658 170.263 24.8292 169.524 25.1692L168.981 25.4117V31.2017C168.981 32.1405 169.021 32.868 169.099 33.3817C169.179 33.8967 169.318 34.3467 169.513 34.733H167.784H166.059C166.249 34.3617 166.38 33.9167 166.456 33.3992C166.529 32.878 166.568 32.1455 166.568 31.198Z" />
<path d="M181.827 34.9975C180.34 34.9975 179.157 34.5325 178.286 33.5975C177.417 32.6663 176.978 31.4025 176.978 29.8088C176.978 27.6825 177.581 25.915 178.786 24.505C179.991 23.0913 181.503 22.3863 183.317 22.3863C183.807 22.3863 184.265 22.4525 184.686 22.585V21.6413C184.686 20.8588 184.65 20.2063 184.575 19.6888C184.505 19.17 184.371 18.6425 184.177 18.11L185.865 17.765L187.56 17.41C187.386 17.9 187.266 18.48 187.198 19.155C187.135 19.8288 187.101 20.7763 187.101 22V31.1988C187.101 32.1375 187.141 32.8675 187.22 33.3825C187.3 33.8975 187.435 34.3475 187.633 34.7325H186.158H184.686V33.0863L183.251 34.7088C182.695 34.9075 182.221 35.0063 181.827 34.9975ZM182.501 24.1025C181.426 24.1025 180.652 24.4675 180.178 25.1963C179.705 25.925 179.47 27.115 179.47 28.7663C179.47 30.0838 179.755 31.13 180.327 31.905C180.902 32.6788 181.675 33.065 182.655 33.065C183.127 33.065 183.568 32.975 183.975 32.7988L184.686 32.4188V24.7975C184.123 24.335 183.393 24.1025 182.501 24.1025Z" />
<path d="M210.027 34.9975C208.537 34.9975 207.355 34.5325 206.485 33.5975C205.614 32.6663 205.177 31.4025 205.177 29.8088C205.177 27.6825 205.78 25.915 206.985 24.505C208.19 23.0913 209.7 22.3863 211.515 22.3863C212.004 22.3863 212.462 22.4525 212.882 22.585V21.6413C212.882 20.8588 212.847 20.2063 212.772 19.6888C212.7 19.17 212.569 18.6425 212.376 18.11L214.062 17.765L215.76 17.41C215.582 17.9 215.461 18.48 215.399 19.155C215.332 19.8288 215.301 20.7763 215.301 22V31.1988C215.301 32.1375 215.339 32.8675 215.42 33.3825C215.497 33.8975 215.635 34.3475 215.831 34.7325H214.359H212.882V33.0863L211.45 34.7088C210.891 34.9075 210.419 35.0063 210.027 34.9975ZM210.696 24.1025C209.624 24.1025 208.85 24.4675 208.375 25.1963C207.902 25.925 207.665 27.115 207.665 28.7663C207.665 30.0838 207.952 31.13 208.526 31.905C209.1 32.6788 209.875 33.065 210.854 33.065C211.326 33.065 211.766 32.975 212.172 32.7988L212.882 32.4188V24.7975C212.321 24.335 211.591 24.1025 210.696 24.1025Z" />
<path d="M192.094 34.9975C190.917 34.9975 190.011 34.745 189.375 34.245C188.737 33.7412 188.42 33.0225 188.42 32.0912C188.42 31.47 188.641 30.8862 189.09 30.34C189.539 29.7925 190.145 29.3587 190.906 29.0425L194.457 27.5737V26.475C194.457 25.8162 194.255 25.2925 193.849 24.9025C193.444 24.5137 192.897 24.32 192.21 24.32C191.767 24.32 191.339 24.3962 190.927 24.545C190.514 24.695 190.059 24.945 189.564 25.29L190.231 22.9675C190.702 22.7662 191.161 22.62 191.602 22.525C192.045 22.435 192.495 22.3862 192.951 22.3862C194.256 22.3862 195.239 22.7287 195.892 23.4112C196.547 24.09 196.874 25.1075 196.874 26.465V31.1987C196.874 32.2037 196.907 32.965 196.967 33.4812C197.034 33.995 197.145 34.4137 197.31 34.7325H195.885H194.457V33.5737L192.582 34.975L192.094 34.9975ZM194.457 32.9V29.5862H191.36C191.287 29.5862 191.194 29.8087 191.079 30.255C190.964 30.7037 190.906 31.08 190.906 31.38C190.906 31.9487 191.091 32.3775 191.461 32.6625C191.829 32.9475 192.381 33.0887 193.119 33.0887C193.58 33.0887 194.015 33.0262 194.436 32.9H194.457Z" />
<path d="M198.847 31.198V26.1855C198.847 25.5355 198.81 24.9492 198.737 24.4305C198.663 23.9117 198.531 23.3192 198.341 22.6517H199.796H201.263V24.7955L203.135 22.6855C203.687 22.4855 204.22 22.3867 204.727 22.3867C205.15 22.3867 205.507 22.468 205.805 22.6317L205.317 25.2355L205.207 25.1567C204.755 24.8242 204.22 24.658 203.6 24.658C203.141 24.658 202.546 24.8255 201.803 25.1655L201.263 25.408V31.198C201.263 32.1367 201.303 32.868 201.381 33.3817C201.462 33.8967 201.597 34.3467 201.796 34.733H200.066H198.341C198.531 34.3617 198.663 33.9167 198.737 33.3992C198.81 32.878 198.847 32.1455 198.847 31.198Z" />
</svg>
